<svg id="svg" xmlns="http://www.w3.org/2000/svg" xmlns:xlink="http://www.w3.org/1999/xlink" width="400" height="600" viewBox="0, 0, 400,600"><g id="svgg"><path id="path0" d="M183.804 34.891 C 130.399 39.598,81.657 66.921,49.555 110.148 C 41.299 121.264,26.823 147.310,27.601 149.646 C 27.814 150.285,39.144 155.149,52.779 160.455 L 77.570 170.103 80.937 163.089 C 92.548 138.903,113.968 116.923,138.525 103.995 C 147.465 99.289,164.786 92.632,168.092 92.632 C 169.226 92.632,169.474 120.709,169.474 249.390 L 169.474 406.148 176.579 407.021 C 187.411 408.353,217.290 408.015,227.632 406.445 L 236.842 405.046 236.842 249.428 L 236.842 93.810 244.136 96.290 C 278.580 108.005,308.230 136.402,323.139 171.951 C 324.611 175.460,325.750 176.880,326.777 176.486 C 327.600 176.171,339.319 172.976,352.821 169.387 C 366.322 165.799,377.479 162.779,377.614 162.677 C 378.346 162.124,370.599 144.161,365.111 133.684 C 335.361 76.893,278.472 39.794,213.374 34.731 C 198.962 33.610,198.292 33.614,183.804 34.891 M20.449 168.513 C 16.873 181.315,14.405 179.243,44.490 188.692 L 69.507 196.549 70.095 193.801 C 70.419 192.289,71.532 188.118,72.569 184.532 C 73.893 179.955,74.105 177.867,73.280 177.527 C 72.308 177.126,33.196 161.840,25.636 158.906 C 23.517 158.084,23.195 158.682,20.449 168.513 M354.850 177.471 C 341.307 181.117,329.655 184.320,328.956 184.588 C 326.821 185.407,330.343 198.090,332.520 197.420 C 333.450 197.134,345.046 194.302,358.289 191.126 C 386.470 184.368,383.607 185.954,382.036 177.971 C 380.424 169.775,383.247 169.827,354.850 177.471 M78.066 325.266 L 61.186 347.256 70.384 356.009 C 92.379 376.940,136.761 402.105,151.681 402.105 C 152.223 402.105,152.632 389.920,152.632 373.735 L 152.632 345.364 143.538 341.103 C 129.561 334.553,117.400 325.867,105.635 314.031 L 94.946 303.276 78.066 325.266 M291.053 317.516 C 281.298 326.538,272.091 333.072,260.829 338.961 L 250.526 344.349 250.526 372.701 C 250.526 388.474,250.940 401.053,251.459 401.053 C 266.112 401.053,312.859 373.548,332.422 353.417 L 336.950 348.758 317.559 330.168 C 306.893 319.944,297.988 311.600,297.768 311.626 C 297.548 311.653,294.526 314.303,291.053 317.516 M101.709 436.477 C 128.156 476.336,160.671 525.408,173.966 545.526 C 189.515 569.057,198.751 582.097,199.858 582.082 C 200.952 582.067,214.987 561.852,238.407 526.556 C 258.663 496.029,291.269 446.895,310.866 417.368 C 340.233 373.122,345.413 364.795,340.332 370.000 C 281.302 430.479,189.803 446.918,114.211 410.625 C 92.802 400.347,77.705 389.446,62.217 373.085 C 54.092 364.501,56.240 367.950,101.709 436.477 " stroke="none" fill="#000000" fill-rule="evenodd"></path></g></svg>