<svg id="svg" xmlns="http://www.w3.org/2000/svg" xmlns:xlink="http://www.w3.org/1999/xlink" width="400" height="172.76478679504817" viewBox="0, 0, 400,172.76478679504817"><g id="svgg"><path id="path0" d="M66.988 23.981 C 53.399 24.895,40.087 32.291,31.702 43.585 C 29.558 46.471,25.719 53.361,25.919 53.961 C 25.976 54.130,28.939 55.404,32.504 56.791 L 38.986 59.314 39.839 57.483 C 42.677 51.391,48.691 45.237,54.982 41.988 C 57.358 40.761,61.800 39.065,62.638 39.065 C 62.934 39.065,62.999 46.403,62.999 80.033 L 62.999 121.002 64.856 121.230 C 67.650 121.573,75.471 121.482,78.197 121.074 L 80.603 120.714 80.673 80.049 L 80.743 39.383 82.578 40.025 C 91.704 43.216,99.372 50.645,103.272 60.071 C 103.568 60.788,103.839 61.084,104.106 60.981 C 104.323 60.898,107.387 60.063,110.916 59.125 C 114.445 58.187,117.360 57.398,117.396 57.371 C 118.084 56.851,112.877 47.032,109.658 42.779 C 100.832 31.119,83.602 22.794,70.289 23.756 C 69.986 23.778,68.501 23.879,66.988 23.981 M331.358 54.459 C 315.719 58.037,310.974 69.672,320.638 80.743 C 327.612 88.732,326.641 92.719,317.123 95.167 C 313.355 96.136,313.425 95.909,315.598 100.174 C 319.171 107.186,319.696 107.728,322.360 107.161 C 335.875 104.285,343.351 93.170,338.472 83.207 C 338.068 82.381,336.385 80.004,334.731 77.923 C 331.080 73.328,330.426 72.253,330.218 70.497 C 329.818 67.115,333.382 64.554,337.840 65.020 C 339.872 65.232,339.940 65.039,338.704 62.586 C 338.169 61.527,337.087 59.175,336.297 57.359 C 334.645 53.557,334.829 53.665,331.358 54.459 M241.816 54.354 C 241.437 54.422,240.385 54.610,239.477 54.772 C 221.317 58.020,214.044 84.810,227.336 99.497 C 235.787 108.836,251.784 109.565,260.839 101.023 C 264.210 97.843,264.263 98.267,259.624 91.403 C 257.323 87.998,257.432 88.074,256.219 89.041 C 246.822 96.531,237.410 94.460,234.809 84.330 C 231.299 70.660,244.108 62.398,255.102 71.242 C 257.563 73.222,257.542 73.226,259.345 70.352 C 263.781 63.279,263.970 62.426,261.595 60.221 C 257.041 55.994,247.867 53.273,241.816 54.354 M185.808 54.866 C 185.750 55.027,185.218 56.520,184.624 58.184 C 183.256 62.020,182.470 64.177,178.006 76.341 C 168.184 103.104,167.607 104.809,168.220 105.257 C 169.439 106.148,180.833 106.142,181.819 105.249 C 182.107 104.988,182.681 103.545,183.118 101.982 C 184.256 97.904,183.479 98.211,192.641 98.216 C 196.915 98.218,200.568 98.319,200.757 98.439 C 201.101 98.657,202.459 102.882,202.470 103.767 C 202.473 104.024,202.768 104.573,203.125 104.988 L 203.773 105.742 209.246 105.849 C 215.114 105.964,217.527 105.752,217.949 105.083 C 218.426 104.326,200.784 58.020,199.061 55.507 L 198.487 54.670 192.200 54.622 C 187.975 54.590,185.878 54.670,185.808 54.866 M128.932 55.540 C 123.958 55.745,124.129 55.607,124.409 59.176 C 124.718 63.130,124.880 86.830,124.629 91.334 C 124.037 101.920,124.012 104.972,124.511 105.387 C 125.146 105.914,138.436 105.966,138.958 105.444 C 139.219 105.183,139.190 103.841,138.822 99.254 C 137.925 88.069,137.818 88.583,141.034 88.583 C 143.723 88.583,144.991 89.033,145.525 90.178 C 146.166 91.550,150.093 101.078,150.903 103.227 C 151.344 104.396,151.894 105.429,152.125 105.523 C 153.607 106.124,166.713 105.928,166.713 105.304 C 166.713 104.758,164.535 99.927,161.214 93.105 L 157.874 86.245 159.336 85.015 C 164.115 80.995,165.453 78.367,165.785 72.352 C 166.240 64.087,162.240 58.544,154.053 56.092 C 151.825 55.425,138.716 55.137,128.932 55.540 M267.645 55.745 C 267.406 56.033,267.532 64.339,267.822 67.400 C 268.069 70.006,268.169 86.986,267.961 90.922 C 267.841 93.191,267.652 97.296,267.541 100.043 L 267.340 105.038 267.989 105.408 C 268.977 105.970,281.151 105.939,281.835 105.372 C 282.335 104.956,282.323 98.779,281.805 90.476 L 281.640 87.831 283.117 87.128 C 286.274 85.628,285.585 84.808,293.320 99.252 C 296.995 106.113,296.688 105.934,304.677 105.896 C 313.841 105.853,313.779 105.440,301.656 85.708 L 298.114 79.945 299.057 79.243 C 304.106 75.488,308.549 67.353,310.760 57.817 C 311.299 55.495,311.642 55.620,304.539 55.554 C 296.887 55.484,297.784 54.969,295.731 60.608 C 293.128 67.758,292.714 68.754,291.496 70.801 C 289.835 73.590,287.886 74.776,284.552 75.029 L 282.584 75.179 282.107 74.257 C 281.673 73.416,281.652 72.727,281.868 66.447 C 281.999 62.659,282.108 58.646,282.112 57.530 L 282.118 55.500 275.011 55.467 C 270.014 55.443,267.827 55.526,267.645 55.745 M346.676 55.708 C 346.579 55.860,346.560 58.831,346.634 62.311 C 346.934 76.504,346.759 91.589,346.175 101.929 C 345.942 106.046,345.451 105.777,353.206 105.776 C 356.625 105.775,359.781 105.676,360.219 105.554 L 361.016 105.334 360.814 91.139 C 360.648 79.404,360.697 75.117,361.101 66.401 C 361.370 60.603,361.511 55.780,361.415 55.684 C 361.114 55.382,346.870 55.406,346.676 55.708 M24.051 58.896 C 23.117 62.242,22.472 61.701,30.330 64.168 L 36.864 66.220 37.139 65.091 C 37.290 64.470,37.585 63.381,37.795 62.672 C 38.075 61.730,38.093 61.348,37.865 61.254 C 37.605 61.147,27.375 57.149,25.407 56.385 C 24.853 56.171,24.769 56.327,24.051 58.896 M111.446 61.237 C 107.907 62.190,104.855 63.030,104.664 63.103 C 104.089 63.324,105.020 66.633,105.607 66.452 C 105.852 66.377,108.884 65.636,112.345 64.806 C 119.697 63.043,119.010 63.424,118.569 61.347 C 118.120 59.228,118.866 59.240,111.446 61.237 M146.135 66.059 C 152.494 67.406,154.174 75.865,148.625 78.590 C 146.981 79.398,140.968 79.746,138.858 79.156 L 138.102 78.944 138.106 72.966 C 138.108 69.678,138.205 66.839,138.320 66.657 C 138.888 65.765,143.192 65.435,146.135 66.059 M193.982 74.997 C 196.395 82.151,197.117 85.613,196.264 85.940 C 195.387 86.277,189.120 86.121,188.614 85.751 C 187.961 85.273,189.502 79.817,192.276 72.789 C 192.709 71.693,192.990 72.057,193.982 74.997 M39.116 99.854 L 34.698 105.610 37.102 107.898 C 42.887 113.403,54.439 119.945,58.376 119.945 C 58.498 119.945,58.597 116.628,58.597 112.574 L 58.597 105.204 55.502 103.634 C 51.650 101.681,49.264 99.918,46.045 96.649 L 43.535 94.098 39.116 99.854 M94.773 97.838 C 92.114 100.298,89.728 101.970,86.884 103.368 L 84.223 104.677 84.202 112.173 C 84.191 116.296,84.282 119.670,84.405 119.670 C 88.253 119.670,100.459 112.495,105.585 107.220 L 106.768 106.003 101.700 101.144 C 98.913 98.472,96.585 96.292,96.528 96.299 C 96.471 96.305,95.681 96.998,94.773 97.838 M108.170 110.984 C 94.237 126.853,68.311 131.723,48.556 122.181 C 43.002 119.499,39.098 116.692,35.100 112.508 C 33.907 111.259,33.037 110.410,33.166 110.621 C 33.295 110.832,39.600 120.351,47.177 131.774 C 54.755 143.198,63.102 155.794,65.727 159.766 C 68.736 164.319,70.664 166.985,70.944 166.981 C 71.224 166.978,74.965 161.587,81.015 152.470 C 86.308 144.492,94.819 131.682,99.927 124.003 C 105.034 116.324,109.165 110.041,109.106 110.041 C 109.046 110.041,108.625 110.466,108.170 110.984 " stroke="none" fill="#000000" fill-rule="evenodd"></path></g></svg>